<svg xmlns="http://www.w3.org/2000/svg" width="20" height="20" viewBox="0 0 20 20">
    <g fill="none" fill-rule="evenodd">
        <g fill="#FFF" fill-rule="nonzero">
            <g>
                <g>
                    <g>
                        <path d="M18.497 11c.829 0 1.5.672 1.5 1.5v6c0 .828-.671 1.5-1.5 1.5h-6c-.828 0-1.5-.672-1.5-1.5v-6c0-.828.672-1.5 1.5-1.5h6zM7.5 11c.828 0 1.5.672 1.5 1.5v6c0 .828-.672 1.5-1.5 1.5h-6C.672 20 0 19.328 0 18.5v-6c0-.828.672-1.5 1.5-1.5h6zm10.797 1.7h-5.6v5.6h5.6v-5.6zM7.3 12.7H1.7v5.6h5.6v-5.6zM7.5 0C8.328 0 9 .672 9 1.5v6C9 8.328 8.328 9 7.5 9h-6C.672 9 0 8.328 0 7.5v-6C0 .672.672 0 1.5 0h6zm10.997 0c.829 0 1.5.672 1.5 1.5v6c0 .828-.671 1.5-1.5 1.5h-6c-.828 0-1.5-.672-1.5-1.5v-6c0-.828.672-1.5 1.5-1.5h6zM7.3 1.7H1.7v5.6h5.6V1.7zm10.997 0h-5.6v5.6h5.6V1.7z" transform="translate(-310 -2563) translate(0 2294) translate(296 255) translate(14 14)"/>
                    </g>
                </g>
            </g>
        </g>
    </g>
</svg>
