<svg xmlns="http://www.w3.org/2000/svg" width="79" height="23" viewBox="0 0 79 23">
    <g fill="none" fill-rule="evenodd">
        <g fill="#FFF" fill-rule="nonzero">
            <g>
                <g>
                    <g transform="translate(-117 -87) translate(0 79) translate(16 8) translate(101)">
                        <path d="M35.823 5.596v10.369c.013.103-.023.206-.097.28-.074.074-.178.11-.283.099h-1.309c-.105.01-.209-.025-.283-.1-.074-.073-.111-.176-.1-.28v-.54c-.574.72-1.435 1.152-2.608 1.152-2.145 0-3.917-1.824-3.917-4.191 0-2.368 1.772-4.192 3.917-4.192 1.173 0 2.034.433 2.608 1.153v-3.75c-.011-.104.026-.207.1-.28.074-.074.178-.11.283-.1h1.31c.104-.01.208.026.282.1.074.073.11.177.097.28zm-2.072 6.78c.029-.805-.39-1.562-1.09-1.973-.7-.412-1.572-.412-2.273 0-.7.41-1.118 1.168-1.09 1.974-.028.806.39 1.562 1.09 1.974.701.411 1.573.411 2.273 0 .7-.412 1.119-1.168 1.09-1.974zM43.352 8.388c.104-.011.208.025.282.099.074.074.11.177.098.28v7.198c.012.103-.024.206-.098.28-.074.074-.178.11-.282.099h-1.313c-.104.011-.208-.025-.282-.1-.074-.073-.11-.176-.097-.28v-.427c-.452.674-1.19 1.031-2.187 1.031-1.496 0-2.614-1.136-2.614-3.085V8.778c-.011-.104.026-.207.1-.28.074-.074.179-.11.283-.099h1.301c.105-.011.209.025.283.099.075.073.111.176.1.28v4.548c0 .912.547 1.353 1.274 1.353.82 0 1.451-.465 1.451-1.664V8.778c-.012-.103.024-.207.098-.28.074-.074.178-.11.282-.099h1.312l.009-.01zM51.664 16.354h-1.528c-.183.009-.357-.078-.459-.23l-2.638-3.363v3.204c.012.103-.025.206-.1.28-.074.074-.178.11-.283.099h-1.309c-.104.01-.209-.025-.283-.1-.074-.073-.111-.176-.1-.28V5.597c-.011-.104.026-.207.1-.28.074-.074.179-.11.283-.1h1.31c.104-.01.208.026.283.1.074.073.11.176.1.28v6.31l2.479-3.269c.1-.15.274-.238.456-.23h1.539c.314 0 .418.203.23.457l-2.71 3.48 2.849 3.561c.208.244.101.45-.219.45zM55.94 8.185c1.774 0 3.28 1.045 3.28 3.117v4.663c.012.103-.024.206-.098.28-.074.074-.178.11-.282.099h-1.263c-.105.01-.209-.025-.283-.1-.074-.073-.111-.176-.1-.28v-.297c-.462.557-1.159.901-2.186.901-1.43 0-2.707-.83-2.707-2.5s1.277-2.503 2.707-2.503c.792-.043 1.572.209 2.186.706v-.85c0-.941-.48-1.336-1.243-1.336-.607 0-1.056.251-1.192.682-.082.213-.167.338-.397.338h-1.287c-.108.012-.215-.026-.29-.104-.075-.077-.108-.185-.09-.291.2-1.624 1.607-2.525 3.256-2.525h-.011zm1.243 5.886c0-.615-.563-.99-1.473-.99-.91 0-1.34.416-1.34.99 0 .573.427.99 1.34.99s1.473-.42 1.473-.99zM63.799 8.185c1.774 0 3.28 1.045 3.28 3.117v4.663c.012.103-.024.206-.098.28-.074.074-.178.11-.282.099h-1.263c-.105.01-.209-.025-.283-.1-.074-.073-.111-.176-.1-.28v-.297c-.462.557-1.159.901-2.186.901-1.433 0-2.71-.83-2.71-2.5s1.277-2.503 2.71-2.503c.792-.043 1.572.209 2.186.706v-.85c0-.941-.48-1.336-1.243-1.336-.607 0-1.056.251-1.192.682-.082.213-.167.338-.397.338h-1.284c-.108.013-.217-.025-.292-.102-.075-.078-.11-.187-.091-.293.2-1.624 1.607-2.525 3.256-2.525h-.011zm1.243 5.886c0-.615-.56-.99-1.473-.99s-1.34.416-1.34.99c0 .573.427.99 1.34.99s1.473-.42 1.473-.99zM72.377 8.185c1.495 0 2.61 1.137 2.61 3.085v4.695c.012.103-.024.206-.098.28-.074.074-.177.11-.282.099h-1.312c-.104.011-.208-.025-.282-.1-.074-.073-.11-.176-.098-.28v-4.537c0-.912-.547-1.353-1.274-1.353-.82 0-1.451.465-1.451 1.664v4.227c.011.103-.026.206-.1.28-.074.074-.178.11-.283.099h-1.31c-.104.01-.208-.025-.282-.1-.075-.073-.111-.176-.1-.28V8.779c-.011-.104.025-.207.1-.28.074-.074.178-.11.283-.099h1.309c.105-.011.209.025.283.099.074.073.111.176.1.28v.438c.45-.674 1.186-1.03 2.187-1.03z"/>
                        <ellipse cx="11.503" cy="11.386" opacity=".3" rx="11.503" ry="11.386"/>
                        <path d="M16.04 5.412H6.963c-.883 0-1.599.708-1.599 1.583v8.786c0 .874.716 1.583 1.6 1.583h9.078c.883 0 1.599-.71 1.599-1.583V6.989c-.003-.872-.718-1.577-1.6-1.577zm-4.537 7.008c-2.24-.008-4.1-1.713-4.28-3.924-.037-.476.323-.89.804-.926.481-.036.9.32.936.797.098 1.316 1.205 2.334 2.538 2.334 1.334 0 2.44-1.018 2.539-2.334.021-.354.258-.659.597-.77.34-.111.714-.007.944.264.153.173.228.4.208.63-.18 2.213-2.044 3.92-4.286 3.924v.005zM76.879 4.427c-1.108 0-2.007.889-2.007 1.986s.899 1.986 2.007 1.986 2.006-.89 2.006-1.986c0-1.097-.898-1.986-2.006-1.986zm0 .306c.936.004 1.692.758 1.69 1.685-.004.927-.765 1.677-1.701 1.675-.937-.001-1.695-.753-1.695-1.68 0-.447.179-.876.5-1.192.32-.315.754-.491 1.206-.488zm-.613.763V7.33h.31v-.674h.401l.432.674h.309l-.448-.698c.047-.01.093-.023.14-.038.082-.026.158-.072.218-.135.052-.05.09-.114.106-.184.016-.065.025-.131.028-.198-.004-.067-.013-.134-.028-.2-.019-.068-.055-.13-.106-.181-.058-.066-.134-.114-.219-.138-.112-.047-.234-.068-.355-.062h-.788zm.31.243h.401c.056-.003.112.002.167.014.056 0 .11.017.156.048.042.022.08.052.11.09.032.05.047.108.043.167.003.061-.012.122-.044.174-.029.042-.066.078-.11.105l-.155.046c-.055.013-.11.018-.167.014h-.402v-.658z"/>
                    </g>
                </g>
            </g>
        </g>
    </g>
</svg>
